# AST/ASF file generated using VICON BodyLanguage
# -----------------------------------------------
:version 1.10
:name VICON
:units
  mass 1.0
  length 0.45
  angle deg
:documentation
   .ast/.asf automatically generated from VICON data using
   VICON BodyBuilder and BodyLanguage model FoxedUp or BRILLIANT.MOD
:root
   order TX TY TZ RX RY RZ
   axis XYZ
   position 0 0 0  
   orientation 0 0 0 
:bonedata
  begin
     id 1 
     name lhipjoint
     direction 0.650112 -0.723553 0.232005 
     length 2.45805 
     axis 0 0 0  XYZ
  end
  begin
     id 2 
     name lfemur
     direction 0.34202 -0.939693 0  
     length 7.00073  
     axis 0 0 20  XYZ
    dof rx ry rz
    limits (-160.0 20.0)
           (-70.0 70.0)
           (-60.0 70.0)
  end
  begin
     id 3 
     name ltibia
     direction 0.34202 -0.939693 0   
     length 7.8748   
     axis 0 0 20   XYZ
    dof rx
    limits (-10.0 170.0)
  end
  begin
     id 4 
     name lfoot
     direction 0.0542825 -0.14914 0.987325   
     length 1.75978   
     axis -90 7.62852e-016 20   XYZ
    dof rx rz
    limits (-45.0 90.0)
           (-70.0 20.0)
  end
  begin
     id 5 
     name ltoes
     direction 1.53509e-011 -4.21906e-011 1   
     length 0.893912   
     axis -90 7.62852e-016 20   XYZ
    dof rx
    limits (-90.0 20.0)
  end
  begin
     id 6 
     name rhipjoint
     direction -0.637897 -0.733345 0.235145   
     length 2.42522  
     axis 0 0 0  XYZ 
  end
  begin
     id 7 
     name rfemur
     direction -0.34202 -0.939693 0   
     length 7.02549   
     axis 0 0 -20   XYZ
    dof rx ry rz
    limits (-160.0 20.0)
           (-70.0 70.0)
           (-70.0 60.0)
  end
  begin
     id 8 
     name rtibia
     direction -0.34202 -0.939693 0   
     length 7.71512   
     axis 0 0 -20   XYZ
    dof rx
    limits (-10.0 170.0)
 end
 begin
     id 9 
     name rfoot
     direction -0.0822618 -0.226012 0.970645   
     length 1.90014  
     axis -90 -7.62852e-016 -20   XYZ
    dof rx rz
    limits (-45.0 90.0)
           (-20.0 70.0)
  end
  begin
     id 10 
     name rtoes
     direction -1.53542e-011 -4.21872e-011 1   
     length 0.957341   
     axis -90 -7.62852e-016 -20   XYZ
    dof rx
    limits (-90.0 20.0)
  end
  begin
     id 11 
     name lowerback
     direction -0.0022947 0.999774 -0.0211557   
     length 1.89909   
     axis 0 0 0   XYZ
    dof rx ry rz
    limits (-20.0 45.0)
           (-30.0 30.0)
           (-30.0 30.0)
  end
  begin
     id 12 
     name upperback
     direction 0.0107737 0.998635 0.0511027   
     length 1.8853   
     axis 0 0 0   XYZ
    dof rx ry rz
    limits (-20.0 45.0)
           (-30.0 30.0)
           (-30.0 30.0)
  end
  begin
     id 13 
     name thorax
     direction 0.011824 0.998136 0.0598754   
     length 1.88911   
     axis 0 0 0   XYZ
    dof rx ry rz
    limits (-20.0 45.0)
           (-30.0 30.0)
           (-30.0 30.0)
  end
  begin
     id 14 
     name lowerneck
     direction -0.0685355 0.990319 0.120714   
     length 1.91222   
     axis 0 0 0   XYZ
    dof rx ry rz
    limits (-20.0 45.0)
           (-30.0 30.0)
           (-30.0 30.0)
  end
  begin
     id 15 
     name upperneck
     direction 0.0886204 0.955665 -0.280805   
     length 1.92526   
     axis 0 0 0   XYZ
    dof rx ry rz
    limits (-20.0 45.0)
           (-30.0 30.0)
           (-30.0 30.0)
  end
  begin
     id 16
     name head
     direction 0.0233423 0.993502 -0.111393  
     length 1.96056  
     axis 0 0 0   XYZ
    dof rx ry rz
    limits (-20.0 45.0)
           (-30.0 30.0)
           (-30.0 30.0)
  end
  begin
     id 17 
     name lclavicle
     direction 0.941873 0.32922 0.0670041  
     length 3.31705  
     axis 0 0 0   XYZ
    dof ry rz
    limits (-20.0 10.0)
           (0.0 20.0)
  end
  begin
     id 18 
     name lhumerus
     direction 1 -4.4898e-011 3.38707e-028   
     length 5.29277   
     axis 180 -30 -90   XYZ
    dof rx ry rz
    limits (-60.0 90.0)
           (-90.0 90.0)
           (-90.0 90.0)
  end
  begin
     id 19
     name lradius
     direction 1 -4.48952e-011 1.63213e-028   
     length 2.85226   
     axis 180 -30 -90   XYZ
    dof rx
    limits (-10.0 170.0)
  end
  begin
     id 20
     name lwrist
     direction 1 -4.49001e-011 1.27856e-027   
     length 1.42613   
     axis -1.61767e-015 90 90   XYZ
    dof ry
    limits (-180.0 0.0)
 end
  begin
     id 21 
     name lhand
     direction 1 -4.48976e-011 2.55931e-027   
     length 0.602097   
     axis -1.63363e-015 90 90   XYZ
    dof rx rz
    limits (-90.0 90.0)
           (-45.0 45.0)
  end
  begin
     id 22 
     name lfingers
     direction 1 -4.48986e-011 5.11684e-027   
     length 0.485426   
     axis -3.26723e-015 90 90   XYZ
    dof rx
    limits (0.0 90.0)
  end
  begin
     id 23
     name lthumb
     direction 0.707107 -6.34915e-011 0.707107   
     length 0.696978   
     axis -90 45 -2.25915e-014   XYZ
    dof rx rz
    limits (-45.0 45.0)
           (-45.0 45.0)
  end
  begin
     id 24 
     name rclavicle
     direction -0.939974 0.327078 0.0973096   
     length 3.10337  
     axis 0 0 0   XYZ 
    dof ry rz
    limits (-10.0 20.0)
           (-20.0 0.0)
  end
  begin
     id 25 
     name rhumerus
     direction -1 -4.48975e-011 1.83745e-027  
     length 5.13304   
     axis 180 30 90   XYZ
    dof rx ry rz
    limits (-90.0 60.0)
           (-90.0 90.0)
           (-90.0 90.0)
  end
  begin
     id 26 
     name rradius
     direction -1 -4.48977e-011 7.1775e-029   
     length 2.74305   
     axis 180 30 90   XYZ
    dof rx
    limits (-10.0 170.0)
  end
  begin
     id 27 
     name rwrist
     direction -1 -4.48977e-011 1.27963e-027   
     length 1.37152   
     axis -1.61767e-015 -90 -90   XYZ
    dof ry
    limits (-180.0 0.0)
  end
  begin
     id 28
     name rhand
     direction -1 -4.4888e-011 2.56782e-027   
     length 0.767976   
     axis -1.63363e-015 -90 -90   XYZ
    dof rx rz
    limits (-90.0 90.0)
           (-45.0 45.0)
  end
  begin
     id 29
     name rfingers
     direction -1 -4.48947e-011 5.12384e-027   
     length 0.619162   
     axis -3.26723e-015 -90 -90   XYZ
    dof rx
    limits (0.0 90.0)
  end
  begin
     id 30
     name rthumb
     direction -0.707107 -6.34857e-011 0.707107   
     length 0.888997   
     axis -90 -45 2.25915e-014   XYZ
    dof rx rz
    limits (-45.0 45.0)
           (-45.0 45.0)
  end
:hierarchy
  begin
    root lhipjoint rhipjoint lowerback
    lhipjoint lfemur
    lfemur ltibia
    ltibia lfoot
    lfoot ltoes
    rhipjoint rfemur
    rfemur rtibia
    rtibia rfoot
    rfoot rtoes
    lowerback upperback
    upperback thorax
    thorax lowerneck lclavicle rclavicle
    lowerneck upperneck
    upperneck head
    lclavicle lhumerus
    lhumerus lradius
    lradius lwrist
    lwrist lhand lthumb
    lhand lfingers
    rclavicle rhumerus
    rhumerus rradius
    rradius rwrist
    rwrist rhand rthumb
    rhand rfingers
  end

#!OML:ASF F:\VICON\USERDATA\INSTALL\rory3\rory3.ASF
:FULLY-SPECIFIED
:DEGREES
61
root 0.0347261 17.4288 0.171312 4.01325 1.92081 -0.102459
lowerback -4.1987 -0.00517104 -2.57219
upperback -4.20655 0.0734272 1.17617
thorax -1.97955 0.120578 2.65425
lowerneck -10.9713 -11.9773 -16.9635
upperneck 29.4749 -18.6075 14.8452
head 15.3192 -8.40724 5.59352
rclavicle -1.36664e-015 8.94531e-015
rhumerus -34.8458 -10.5775 -82.2136
rradius 21.4279
rwrist 29.7165
rhand -10.0937 12.3627
rfingers 7.12502
rthumb 15.8934 -17.0051
lclavicle -1.36664e-015 8.94531e-015
lhumerus -33.5379 3.1663 91.046
lradius 15.7057
lwrist -25.3322
lhand -8.85605 22.8686
lfingers 7.12502
lthumb 17.085 52.1374
rfemur 6.15666 10.5238 19.7554
rtibia -2.06736e-014
rfoot -7.64085 -13.1312
rtoes -14.8619
lfemur -0.610245 -19.6345 -19.1979
ltibia 10.8716
lfoot -13.4926 11.8108
ltoes -20.4227
62
root 0.0357129 17.4283 0.171488 3.97242 1.90065 -0.0664417
lowerback -4.10758 -0.0160687 -2.64195
upperback -4.20292 0.0586604 1.1955
thorax -2.02622 0.115915 2.71302
lowerneck -11.0094 -11.977 -16.9894
upperneck 29.491 -18.587 14.816
head 15.3299 -8.40208 5.58828
rclavicle -2.50966e-015 1.82882e-014
rhumerus -34.8376 -10.4776 -82.1973
rradius 21.4157
rwrist 29.69
rhand -10.0462 12.3398
rfingers 7.12502
rthumb 15.9392 -17.0243
lclavicle -2.50966e-015 1.82882e-014
lhumerus -33.5443 3.21359 91.1091
lradius 15.7378
lwrist -25.4441
lhand -8.74906 22.8535
lfingers 7.12502
lthumb 17.188 52.1133
rfemur 6.2045 10.5419 19.716
rtibia -1.59028e-014
rfoot -7.70738 -13.1272
rtoes -14.7629
lfemur -0.553704 -19.6179 -19.2644
ltibia 10.8793
lfoot -13.5473 11.8376
ltoes -20.1056
63
root 0.0368154 17.427 0.171818 3.92291 1.88608 -0.0405568
lowerback -4.0574 -0.00935162 -2.68124
upperback -4.16117 0.0674099 1.18975
thorax -2.01185 0.120423 2.7293
lowerneck -11.0602 -11.9844 -16.9917
upperneck 29.472 -18.5972 14.8467
head 15.3397 -8.40055 5.59621
rclavicle -3.3048e-015 -1.45113e-014
rhumerus -34.7624 -10.3815 -82.2426
rradius 21.4102
rwrist 29.5827
rhand -9.96435 12.2226
rfingers 7.12502
rthumb 16.018 -17.1352
lclavicle -3.3048e-015 -1.45113e-014
lhumerus -33.5097 3.11149 91.1936
lradius 15.7536
lwrist -25.4897
lhand -8.71158 22.7689
lfingers 7.12502
lthumb 17.2241 52.0256
rfemur 6.24243 10.5552 19.691
rtibia 1.43125e-014
rfoot -7.77081 -13.1274
rtoes -15.5142
lfemur -0.51229 -19.6061 -19.3196
ltibia 10.9331
lfoot -13.5912 11.8915
ltoes -20.2727
64
root 0.0372723 17.4262 0.170583 3.90878 1.87352 -0.0825918
lowerback -4.04845 0.0300807 -2.61505
upperback -4.12345 0.117983 1.15728
thorax -1.98059 0.14261 2.65961
lowerneck -11.0681 -12.0131 -16.9705
upperneck 29.4135 -18.6585 14.9132
head 15.335 -8.41718 5.60434
rclavicle 6.21202e-016 1.43125e-014
rhumerus -34.7299 -10.3883 -82.3064
rradius 21.4362
rwrist 29.4661
rhand -9.96994 12.1506
rfingers 7.12502
rthumb 16.0126 -17.2076
lclavicle 6.21202e-016 1.43125e-014
lhumerus -33.4517 2.79627 91.3345
lradius 15.785
lwrist -25.3822
lhand -8.74885 22.8203
lfingers 7.12502
lthumb 17.1882 52.0801
rfemur 6.21242 10.571 19.726
rtibia 1.90833e-014
rfoot -7.92106 -13.0901
rtoes -15.5073
lfemur -0.546997 -19.5909 -19.2829
ltibia 11.0354
lfoot -13.6765 11.9308
ltoes -20.2276
65
root 0.0378964 17.427 0.16973 3.91834 1.86922 -0.160456
lowerback -4.0601 0.0559141 -2.5267
upperback -4.09828 0.150663 1.15185
thorax -1.94951 0.155896 2.60504
lowerneck -11.1162 -12.0268 -16.9292
upperneck 29.386 -18.6819 14.9285
head 15.3352 -8.41823 5.59508
rclavicle 3.13086e-015 -1.2921e-014
rhumerus -34.7101 -10.3416 -82.3664
rradius 21.495
rwrist 29.3995
rhand -9.92791 12.0836
rfingers 7.12502
rthumb 16.0531 -17.2714
lclavicle 3.13086e-015 -1.2921e-014
lhumerus -33.3754 2.4272 91.5166
lradius 15.7813
lwrist -25.145
lhand -8.85444 22.8959
lfingers 7.12502
lthumb 17.0866 52.1645
rfemur 6.17502 10.5806 19.8024
rtibia -7.95139e-015
rfoot -8.01525 -13.0793
rtoes -14.985
lfemur -0.618982 -19.5809 -19.1961
ltibia 11.1348
lfoot -13.7326 11.972
ltoes -20.3198
66
root 0.0384346 17.4271 0.169524 3.91409 1.88152 -0.280376
lowerback -4.05923 0.0504157 -2.42381
upperback -4.08608 0.141573 1.20459
thorax -1.93636 0.149224 2.60135
lowerneck -11.1432 -12.0143 -16.9702
upperneck 29.3622 -18.6468 14.9392
head 15.3291 -8.40533 5.612
rclavicle -3.47873e-016 -7.95139e-015
rhumerus -34.6967 -10.2781 -82.3703
rradius 21.5242
rwrist 29.4003
rhand -9.84733 12.0268
rfingers 7.12502
rthumb 16.1307 -17.3219
lclavicle -3.47873e-016 -7.95139e-015
lhumerus -33.3314 2.42024 91.5869
lradius 15.7415
lwrist -25.1757
lhand -9.02209 22.85
lfingers 7.12502
lthumb 16.9252 52.1325
rfemur 6.18255 10.5759 19.9382
rtibia -1.43125e-014
rfoot -8.01937 -13.0808
rtoes -15.3163
lfemur -0.667919 -19.5845 -19.0607
ltibia 11.2111
lfoot -13.7419 11.9614
ltoes -20.1864
